<svg width="203" height="54" viewBox="0 0 203 54" fill="none" xmlns="http://www.w3.org/2000/svg">
<path d="M137.614 41.7422C138.7 41.7422 139.575 42.0103 140.21 42.5465C140.859 43.0828 141.184 43.7883 141.184 44.6632V50.5759H139.208V49.4046H139.067C138.884 49.828 138.573 50.1667 138.15 50.4207C137.727 50.6606 137.219 50.7876 136.64 50.7876C135.779 50.7876 135.088 50.5477 134.566 50.082C134.044 49.6163 133.775 48.9954 133.775 48.2334C133.775 47.4432 134.029 46.8223 134.552 46.3425C135.074 45.8627 135.765 45.6369 136.626 45.6369H139.109V44.8608C139.109 44.4516 138.968 44.1129 138.686 43.873C138.404 43.6331 138.023 43.5061 137.543 43.5061C137.134 43.5061 136.781 43.6049 136.513 43.7883C136.245 43.9859 136.104 44.2258 136.104 44.5362V44.7338H134.086V44.4233C134.086 43.6331 134.41 42.984 135.06 42.4901C135.723 41.9821 136.569 41.7422 137.614 41.7422ZM137.36 49.1083C137.882 49.1083 138.305 48.9954 138.63 48.7837C138.954 48.5721 139.124 48.2899 139.124 47.9371V47.1327H136.979C136.64 47.1327 136.372 47.2174 136.16 47.3867C135.949 47.5561 135.85 47.796 135.85 48.0782C135.85 48.3886 135.977 48.6426 136.245 48.8261C136.527 49.0095 136.894 49.1083 137.36 49.1083Z" fill="#00FFA3"/>
<path d="M146.617 50.773C145.516 50.773 144.641 50.4626 143.978 49.8558C143.315 49.2349 142.976 48.4305 142.976 47.4145V45.1144C142.976 44.0983 143.315 43.2799 143.978 42.6731C144.641 42.0522 145.516 41.7559 146.617 41.7559C147.717 41.7559 148.606 42.0663 149.27 42.6731C149.933 43.294 150.272 44.0983 150.272 45.1144V45.3119H148.197V45.1144C148.197 44.6769 148.056 44.3241 147.76 44.056C147.463 43.7879 147.082 43.6609 146.603 43.6609C146.123 43.6609 145.742 43.7879 145.46 44.056C145.177 44.3241 145.036 44.6769 145.036 45.1144V47.4145C145.036 47.852 145.177 48.2047 145.46 48.4729C145.742 48.741 146.123 48.868 146.603 48.868C147.082 48.868 147.463 48.741 147.76 48.4729C148.056 48.2047 148.197 47.852 148.197 47.4145V47.2169H150.272V47.4145C150.272 48.4305 149.933 49.249 149.27 49.8558C148.606 50.4767 147.717 50.773 146.617 50.773Z" fill="#00FFA3"/>
<path d="M155.493 41.7422C156.579 41.7422 157.454 42.0103 158.089 42.5465C158.738 43.0828 159.063 43.7883 159.063 44.6632V50.5759H157.087V49.4046H156.946C156.763 49.828 156.452 50.1667 156.029 50.4207C155.605 50.6606 155.097 50.7876 154.519 50.7876C153.658 50.7876 152.967 50.5477 152.445 50.082C151.922 49.6163 151.654 48.9954 151.654 48.2334C151.654 47.4432 151.908 46.8223 152.43 46.3425C152.953 45.8627 153.644 45.6369 154.505 45.6369H156.988V44.8608C156.988 44.4516 156.847 44.1129 156.565 43.873C156.283 43.6331 155.902 43.5061 155.422 43.5061C155.013 43.5061 154.66 43.6049 154.392 43.7883C154.124 43.9859 153.983 44.2258 153.983 44.5362V44.7338H151.965V44.4233C151.965 43.6331 152.289 42.984 152.938 42.4901C153.602 41.9821 154.448 41.7422 155.493 41.7422ZM155.239 49.1083C155.761 49.1083 156.184 48.9954 156.509 48.7837C156.833 48.5721 157.002 48.2899 157.002 47.9371V47.1327H154.872C154.533 47.1327 154.265 47.2174 154.053 47.3867C153.842 47.5561 153.743 47.796 153.743 48.0782C153.743 48.3886 153.87 48.6426 154.138 48.8261C154.406 49.0095 154.773 49.1083 155.239 49.1083Z" fill="#00FFA3"/>
<path d="M166.246 38.4961H168.32V50.5613H166.246V49.2772H166.105C165.935 49.7146 165.639 50.0815 165.201 50.3496C164.764 50.6177 164.27 50.7589 163.706 50.7589C162.873 50.7589 162.196 50.5048 161.688 49.9827C161.166 49.4606 160.912 48.7833 160.912 47.9366V44.5499C160.912 43.7032 161.166 43.0258 161.688 42.5037C162.21 41.9816 162.873 41.7276 163.706 41.7276C164.284 41.7276 164.778 41.8687 165.201 42.1368C165.625 42.4049 165.935 42.7718 166.105 43.2093H166.246V38.4961ZM163.423 48.4305C163.72 48.6986 164.101 48.8397 164.595 48.8397C165.074 48.8397 165.47 48.6986 165.78 48.4164C166.09 48.1341 166.246 47.7813 166.246 47.358V45.1566C166.246 44.7474 166.09 44.3946 165.78 44.0983C165.47 43.8019 165.074 43.6749 164.595 43.6749C164.115 43.6749 163.72 43.8161 163.423 44.0842C163.127 44.3523 162.986 44.7192 162.986 45.1707V47.3439C162.986 47.7955 163.127 48.1624 163.423 48.4305Z" fill="#00FFA3"/>
<path d="M177.647 47.0057H172.341V47.5278C172.341 47.9935 172.497 48.3604 172.793 48.6285C173.103 48.8966 173.513 49.0377 174.021 49.0377C174.486 49.0377 174.853 48.939 175.136 48.7414C175.418 48.5438 175.559 48.2898 175.559 47.9653V47.9371H177.633V47.9935C177.633 48.8261 177.295 49.5034 176.631 50.0114C175.968 50.5194 175.093 50.7876 174.021 50.7876C172.892 50.7876 171.975 50.4771 171.297 49.8562C170.606 49.2353 170.267 48.4169 170.267 47.3867V45.143C170.267 44.1129 170.606 43.2944 171.283 42.6735C171.96 42.0526 172.864 41.7422 173.978 41.7422C175.079 41.7422 175.968 42.0526 176.645 42.6735C177.323 43.2944 177.647 44.1129 177.647 45.143V47.0057ZM173.978 43.4779C173.484 43.4779 173.089 43.619 172.793 43.8871C172.497 44.1552 172.341 44.5221 172.341 44.9737V45.4111H175.587V44.9737C175.587 44.508 175.446 44.1552 175.15 43.873C174.853 43.619 174.472 43.4779 173.978 43.4779Z" fill="#00FFA3"/>
<path d="M189.219 41.7422C189.981 41.7422 190.616 41.9821 191.081 42.4619C191.561 42.9416 191.801 43.5767 191.801 44.3528V50.5759H189.727V45.1007C189.727 44.6773 189.6 44.3387 189.332 44.0847C189.078 43.8307 188.725 43.6895 188.287 43.6895C187.822 43.6895 187.455 43.8307 187.173 44.0988C186.89 44.3669 186.749 44.7056 186.749 45.0866V50.5759H184.675V45.1007C184.675 44.6773 184.548 44.3387 184.28 44.0847C184.026 43.8307 183.673 43.6895 183.236 43.6895C182.77 43.6895 182.403 43.8307 182.121 44.0988C181.839 44.3669 181.697 44.7056 181.697 45.0866V50.5759H179.623V41.9539H181.697V43.1956H181.839C182.008 42.7582 182.304 42.4195 182.713 42.1514C183.123 41.8833 183.617 41.7563 184.167 41.7563C184.745 41.7563 185.253 41.8974 185.691 42.1796C186.114 42.4619 186.425 42.857 186.608 43.365H186.707C186.89 42.8852 187.201 42.4901 187.638 42.1937C188.076 41.8833 188.598 41.7422 189.219 41.7422Z" fill="#00FFA3"/>
<path d="M194.214 53.666V51.9444H195.428C195.95 51.9444 196.289 51.7186 196.444 51.267L196.811 50.3498H195.865L193.085 41.9395H195.371L197.149 48.2472H197.756L199.52 41.9395H201.722L198.391 51.9162C198.01 53.0733 197.192 53.6519 195.922 53.6519H194.214V53.666Z" fill="#00FFA3"/>
<path d="M12.418 2.49752C15.6495 2.49752 18.2319 3.4853 20.1651 5.44678C22.1125 7.40826 23.072 10.0189 23.072 13.2504C23.072 16.5242 22.0984 19.1348 20.1651 21.0821C18.2177 23.0436 15.6354 24.0173 12.418 24.0173H6.66055V32.6534H0V2.4834H12.418V2.49752ZM11.8676 17.893C13.2788 17.893 14.3795 17.4838 15.1979 16.6512C16.0164 15.8186 16.4115 14.6897 16.4115 13.2504C16.4115 11.8251 16.0023 10.6962 15.1838 9.86364C14.3653 9.03107 13.2506 8.60772 11.8676 8.60772H6.66055V17.8789H11.8676V17.893Z" fill="#166199"/>
<path d="M39.5402 9.5957H40.3587V16.0446H39.2862C37.5223 16.0446 36.1394 16.5244 35.1375 17.4698C34.1214 18.4294 33.6134 19.6571 33.6134 21.1811V32.6536H27.3057V10.146H33.6134V13.9279H33.9662C34.3472 12.5591 35.0246 11.5007 35.9983 10.7387C36.9719 9.97671 38.1573 9.5957 39.5402 9.5957Z" fill="#166199"/>
<path d="M52.9174 9.5957C55.8244 9.5957 58.1386 10.2872 59.8743 11.6842C61.61 13.0812 62.4849 14.9298 62.4849 17.2299V32.6677H56.3888V29.8314H55.9937C55.5421 30.8756 54.7801 31.6941 53.7077 32.3008C52.6352 32.9076 51.3652 33.2181 49.8976 33.2181C47.6962 33.2181 45.9323 32.6113 44.6059 31.3977C43.2653 30.1841 42.6021 28.5613 42.6021 26.5434C42.6021 24.5114 43.2794 22.8604 44.6482 21.6186C46.017 20.3768 47.8091 19.7559 50.0387 19.7559H56.1772V17.6956C56.1772 16.7925 55.8667 16.0587 55.2599 15.5366C54.639 15.0003 53.8206 14.7322 52.7904 14.7322C51.8591 14.7322 51.083 14.9439 50.4903 15.3814C49.8976 15.8188 49.6013 16.3833 49.6013 17.1029V17.611H43.4628V16.7925C43.4628 14.6335 44.3236 12.8978 46.0593 11.5995C47.7809 10.2589 50.067 9.5957 52.9174 9.5957ZM52.3389 28.4202C53.4678 28.4202 54.385 28.1803 55.1047 27.7006C55.8103 27.2208 56.1772 26.5999 56.1772 25.8237V23.8905H51.5769C50.7866 23.8905 50.1516 24.088 49.6718 24.4973C49.1921 24.9065 48.9521 25.4286 48.9521 26.0919C48.9521 26.7974 49.2626 27.3619 49.8694 27.7852C50.4903 28.2086 51.3087 28.4202 52.3389 28.4202Z" fill="#166199"/>
<path d="M81.1826 32.6673L76.7799 24.1582H73.9435V32.6673H67.6357V1.14258H73.9435V18.2314H76.6105L81.2955 10.1597H88.2242L81.3378 20.6445L88.3089 32.6673H81.1826Z" fill="#166199"/>
<path d="M105.214 15.7762H100.261V24.5958C100.261 25.3014 100.459 25.8517 100.868 26.2609C101.277 26.6702 101.828 26.8677 102.547 26.8677H104.946V32.6675H100.811C98.7512 32.6675 97.0861 32.0889 95.8302 30.9177C94.5743 29.7464 93.9534 28.2083 93.9534 26.2609V15.7762H90.2139V10.1458H92.6128C93.1631 10.1458 93.6006 9.99058 93.911 9.68013C94.2215 9.36968 94.3767 8.93223 94.3767 8.396V4.30371H100.275V10.1458H105.228V15.7762H105.214Z" fill="#166199"/>
<path d="M113.004 7.26734C111.846 7.26734 110.929 6.92867 110.238 6.26544C109.56 5.6022 109.222 4.7273 109.222 3.65484C109.222 2.55416 109.56 1.67925 110.252 1.0019C110.943 0.338669 111.86 0 113.004 0C114.118 0 115.021 0.324561 115.713 0.987794C116.404 1.65103 116.743 2.52593 116.743 3.59839C116.743 4.69908 116.404 5.57399 115.727 6.25133C115.036 6.94279 114.132 7.26734 113.004 7.26734ZM109.814 32.6677V10.1461H116.122V32.6536H109.814V32.6677Z" fill="#166199"/>
<path d="M135.455 32.6673L131.052 24.1582H128.215V32.6673H121.908V1.14258H128.215V18.2314H130.883L135.567 10.1597H142.496L135.61 20.6445L142.581 32.6673H135.455Z" fill="#166199"/>
<path d="M158.231 10.1465H164.538V32.6541H158.231V29.5072H157.878C157.44 30.622 156.707 31.511 155.676 32.1884C154.646 32.8657 153.433 33.2044 152.022 33.2044C150.06 33.2044 148.465 32.5976 147.238 31.384C146.01 30.1705 145.403 28.59 145.403 26.6285V10.1465H151.697V24.2437C151.697 25.161 151.979 25.9088 152.558 26.4592C153.136 27.0095 153.898 27.2918 154.872 27.2918C155.874 27.2918 156.678 27.0095 157.299 26.431C157.92 25.8524 158.231 25.1468 158.231 24.2719V10.1465Z" fill="#166199"/>
<path d="M195.513 9.5957C197.46 9.5957 199.041 10.2166 200.268 11.4443C201.482 12.672 202.089 14.2948 202.089 16.2845V32.6677H195.781V18.5705C195.781 17.6533 195.499 16.9054 194.934 16.355C194.37 15.8047 193.608 15.5225 192.634 15.5225C191.632 15.5225 190.828 15.8047 190.193 16.3833C189.558 16.9618 189.247 17.6674 189.247 18.5423V32.6818H182.954V18.5846C182.954 17.6674 182.671 16.9195 182.093 16.3691C181.514 15.8188 180.752 15.5366 179.779 15.5366C178.777 15.5366 177.972 15.8188 177.351 16.3974C176.731 16.9759 176.42 17.6815 176.42 18.5564V32.696H170.112V10.146H176.42V13.2929H176.773C177.21 12.1781 177.958 11.2891 178.988 10.6117C180.033 9.93439 181.232 9.5957 182.615 9.5957C184.083 9.5957 185.353 9.94848 186.439 10.6682C187.526 11.3878 188.302 12.3756 188.796 13.6174H189.106C189.6 12.4321 190.419 11.4584 191.533 10.7105C192.662 9.97671 193.989 9.5957 195.513 9.5957Z" fill="#166199"/>
</svg>
