<svg width="79" height="17" viewBox="0 0 79 17" fill="none" xmlns="http://www.w3.org/2000/svg">
<path d="M0.89 13V0.399999H2.366L8.018 9.922H7.226L12.806 0.399999H14.282L14.3 13H12.572L12.554 3.118H12.968L8 11.47H7.172L2.168 3.118H2.618V13H0.89ZM22.0774 13.108C21.0574 13.108 20.1574 12.898 19.3774 12.478C18.6094 12.058 18.0094 11.482 17.5774 10.75C17.1574 10.018 16.9474 9.178 16.9474 8.23C16.9474 7.282 17.1514 6.442 17.5594 5.71C17.9794 4.978 18.5494 4.408 19.2694 4C20.0014 3.58 20.8234 3.37 21.7354 3.37C22.6594 3.37 23.4754 3.574 24.1834 3.982C24.8914 4.39 25.4434 4.966 25.8394 5.71C26.2474 6.442 26.4514 7.3 26.4514 8.284C26.4514 8.356 26.4454 8.44 26.4334 8.536C26.4334 8.632 26.4274 8.722 26.4154 8.806H18.2974V7.564H25.5154L24.8134 7.996C24.8254 7.384 24.6994 6.838 24.4354 6.358C24.1714 5.878 23.8054 5.506 23.3374 5.242C22.8814 4.966 22.3474 4.828 21.7354 4.828C21.1354 4.828 20.6014 4.966 20.1334 5.242C19.6654 5.506 19.2994 5.884 19.0354 6.376C18.7714 6.856 18.6394 7.408 18.6394 8.032V8.32C18.6394 8.956 18.7834 9.526 19.0714 10.03C19.3714 10.522 19.7854 10.906 20.3134 11.182C20.8414 11.458 21.4474 11.596 22.1314 11.596C22.6954 11.596 23.2054 11.5 23.6614 11.308C24.1294 11.116 24.5374 10.828 24.8854 10.444L25.8394 11.56C25.4074 12.064 24.8674 12.448 24.2194 12.712C23.5834 12.976 22.8694 13.108 22.0774 13.108ZM33.0269 16.6C32.1509 16.6 31.2989 16.474 30.4709 16.222C29.6549 15.982 28.9889 15.634 28.4729 15.178L29.3009 13.846C29.7449 14.23 30.2909 14.53 30.9389 14.746C31.5869 14.974 32.2649 15.088 32.9729 15.088C34.1009 15.088 34.9289 14.824 35.4569 14.296C35.9849 13.768 36.2489 12.964 36.2489 11.884V9.868L36.4289 7.978L36.3389 6.07V3.46H37.9769V11.704C37.9769 13.384 37.5569 14.62 36.7169 15.412C35.8769 16.204 34.6469 16.6 33.0269 16.6ZM32.8109 12.604C31.8869 12.604 31.0589 12.412 30.3269 12.028C29.6069 11.632 29.0309 11.086 28.5989 10.39C28.1789 9.694 27.9689 8.89 27.9689 7.978C27.9689 7.054 28.1789 6.25 28.5989 5.566C29.0309 4.87 29.6069 4.33 30.3269 3.946C31.0589 3.562 31.8869 3.37 32.8109 3.37C33.6269 3.37 34.3709 3.538 35.0429 3.874C35.7149 4.198 36.2489 4.702 36.6449 5.386C37.0529 6.07 37.2569 6.934 37.2569 7.978C37.2569 9.01 37.0529 9.868 36.6449 10.552C36.2489 11.236 35.7149 11.752 35.0429 12.1C34.3709 12.436 33.6269 12.604 32.8109 12.604ZM33.0089 11.092C33.6449 11.092 34.2089 10.96 34.7009 10.696C35.1929 10.432 35.5769 10.066 35.8529 9.598C36.1409 9.13 36.2849 8.59 36.2849 7.978C36.2849 7.366 36.1409 6.826 35.8529 6.358C35.5769 5.89 35.1929 5.53 34.7009 5.278C34.2089 5.014 33.6449 4.882 33.0089 4.882C32.3729 4.882 31.8029 5.014 31.2989 5.278C30.8069 5.53 30.4169 5.89 30.1289 6.358C29.8529 6.826 29.7149 7.366 29.7149 7.978C29.7149 8.59 29.8529 9.13 30.1289 9.598C30.4169 10.066 30.8069 10.432 31.2989 10.696C31.8029 10.96 32.3729 11.092 33.0089 11.092ZM47.2006 13V10.984L47.1106 10.606V7.168C47.1106 6.436 46.8946 5.872 46.4626 5.476C46.0426 5.068 45.4066 4.864 44.5546 4.864C43.9906 4.864 43.4386 4.96 42.8986 5.152C42.3586 5.332 41.9026 5.578 41.5306 5.89L40.8106 4.594C41.3026 4.198 41.8906 3.898 42.5746 3.694C43.2706 3.478 43.9966 3.37 44.7526 3.37C46.0606 3.37 47.0686 3.688 47.7766 4.324C48.4846 4.96 48.8386 5.932 48.8386 7.24V13H47.2006ZM44.0686 13.108C43.3606 13.108 42.7366 12.988 42.1966 12.748C41.6686 12.508 41.2606 12.178 40.9726 11.758C40.6846 11.326 40.5406 10.84 40.5406 10.3C40.5406 9.784 40.6606 9.316 40.9006 8.896C41.1526 8.476 41.5546 8.14 42.1066 7.888C42.6706 7.636 43.4266 7.51 44.3746 7.51H47.3986V8.752H44.4466C43.5826 8.752 43.0006 8.896 42.7006 9.184C42.4006 9.472 42.2506 9.82 42.2506 10.228C42.2506 10.696 42.4366 11.074 42.8086 11.362C43.1806 11.638 43.6966 11.776 44.3566 11.776C45.0046 11.776 45.5686 11.632 46.0486 11.344C46.5406 11.056 46.8946 10.636 47.1106 10.084L47.4526 11.272C47.2246 11.836 46.8226 12.286 46.2466 12.622C45.6706 12.946 44.9446 13.108 44.0686 13.108ZM61.0464 16.6C60.1704 16.6 59.3184 16.474 58.4904 16.222C57.6744 15.982 57.0084 15.634 56.4924 15.178L57.3204 13.846C57.7644 14.23 58.3104 14.53 58.9584 14.746C59.6064 14.974 60.2844 15.088 60.9924 15.088C62.1204 15.088 62.9484 14.824 63.4764 14.296C64.0044 13.768 64.2684 12.964 64.2684 11.884V9.868L64.4484 7.978L64.3584 6.07V3.46H65.9964V11.704C65.9964 13.384 65.5764 14.62 64.7364 15.412C63.8964 16.204 62.6664 16.6 61.0464 16.6ZM60.8304 12.604C59.9064 12.604 59.0784 12.412 58.3464 12.028C57.6264 11.632 57.0504 11.086 56.6184 10.39C56.1984 9.694 55.9884 8.89 55.9884 7.978C55.9884 7.054 56.1984 6.25 56.6184 5.566C57.0504 4.87 57.6264 4.33 58.3464 3.946C59.0784 3.562 59.9064 3.37 60.8304 3.37C61.6464 3.37 62.3904 3.538 63.0624 3.874C63.7344 4.198 64.2684 4.702 64.6644 5.386C65.0724 6.07 65.2764 6.934 65.2764 7.978C65.2764 9.01 65.0724 9.868 64.6644 10.552C64.2684 11.236 63.7344 11.752 63.0624 12.1C62.3904 12.436 61.6464 12.604 60.8304 12.604ZM61.0284 11.092C61.6644 11.092 62.2284 10.96 62.7204 10.696C63.2124 10.432 63.5964 10.066 63.8724 9.598C64.1604 9.13 64.3044 8.59 64.3044 7.978C64.3044 7.366 64.1604 6.826 63.8724 6.358C63.5964 5.89 63.2124 5.53 62.7204 5.278C62.2284 5.014 61.6644 4.882 61.0284 4.882C60.3924 4.882 59.8224 5.014 59.3184 5.278C58.8264 5.53 58.4364 5.89 58.1484 6.358C57.8724 6.826 57.7344 7.366 57.7344 7.978C57.7344 8.59 57.8724 9.13 58.1484 9.598C58.4364 10.066 58.8264 10.432 59.3184 10.696C59.8224 10.96 60.3924 11.092 61.0284 11.092ZM73.3842 13.108C72.4242 13.108 71.5722 12.898 70.8282 12.478C70.0842 12.058 69.4962 11.482 69.0642 10.75C68.6322 10.006 68.4162 9.166 68.4162 8.23C68.4162 7.282 68.6322 6.442 69.0642 5.71C69.4962 4.978 70.0842 4.408 70.8282 4C71.5722 3.58 72.4242 3.37 73.3842 3.37C74.3322 3.37 75.1782 3.58 75.9222 4C76.6782 4.408 77.2662 4.978 77.6862 5.71C78.1182 6.43 78.3342 7.27 78.3342 8.23C78.3342 9.178 78.1182 10.018 77.6862 10.75C77.2662 11.482 76.6782 12.058 75.9222 12.478C75.1782 12.898 74.3322 13.108 73.3842 13.108ZM73.3842 11.596C73.9962 11.596 74.5422 11.458 75.0222 11.182C75.5142 10.906 75.8982 10.516 76.1742 10.012C76.4502 9.496 76.5882 8.902 76.5882 8.23C76.5882 7.546 76.4502 6.958 76.1742 6.466C75.8982 5.962 75.5142 5.572 75.0222 5.296C74.5422 5.02 73.9962 4.882 73.3842 4.882C72.7722 4.882 72.2262 5.02 71.7462 5.296C71.2662 5.572 70.8822 5.962 70.5942 6.466C70.3062 6.958 70.1622 7.546 70.1622 8.23C70.1622 8.902 70.3062 9.496 70.5942 10.012C70.8822 10.516 71.2662 10.906 71.7462 11.182C72.2262 11.458 72.7722 11.596 73.3842 11.596Z" fill="white"/>
</svg>
