<svg width="24" height="23" viewBox="0 0 24 23" fill="none" xmlns="http://www.w3.org/2000/svg">
<path d="M24 8.48006V20.0001C24 20.2653 23.8946 20.5196 23.7071 20.7072C23.5196 20.8947 23.2652 21.0001 23 21.0001C22.7348 21.0001 22.4804 20.8947 22.2929 20.7072C22.1054 20.5196 22 20.2653 22 20.0001V11.7521L14.6 15.2881C13.8197 15.7486 12.929 15.9885 12.023 15.9821C11.0729 15.9835 10.14 15.7282 9.323 15.2431L1.943 11.7301C1.36288 11.4181 0.876813 10.9566 0.535224 10.3934C0.193635 9.83024 0.00897484 9.18591 0.000404118 8.52729C-0.0081666 7.86867 0.159664 7.21976 0.486483 6.64788C0.813301 6.076 1.2872 5.602 1.859 5.27506C1.886 5.25906 1.915 5.24406 1.943 5.23006L9.4 1.67206C10.2051 1.20972 11.1188 0.970186 12.0471 0.978095C12.9755 0.986004 13.8849 1.24107 14.682 1.71706L22.057 5.23006C22.6389 5.55204 23.1253 6.02235 23.4665 6.59319C23.8078 7.16402 23.9919 7.81503 24 8.48006ZM12.022 17.9801C10.7426 17.9829 9.48513 17.6476 8.377 17.0081L4 14.9191V17.6191C4.0006 18.6866 4.34237 19.726 4.97543 20.5855C5.60849 21.4451 6.49971 22.0798 7.519 22.3971C8.97534 22.8152 10.4849 23.0183 12 23.0001C13.5153 23.017 15.0249 22.8125 16.481 22.3931C17.5003 22.0758 18.3915 21.4411 19.0246 20.5815C19.6576 19.722 19.9994 18.6826 20 17.6151V14.9241L15.541 17.0541C14.4706 17.669 13.2564 17.9892 12.022 17.9821V17.9801Z" fill="#1D70B7"/>
</svg>
