<svg width="80" height="71" viewBox="0 0 80 71" fill="none" xmlns="http://www.w3.org/2000/svg">
<path d="M45.5345 0.0137576C25.4704 -0.538102 9.03289 15.5841 9.03289 35.4904H1.97697C0.203141 35.4904 -0.664067 37.619 0.597326 38.841L11.5951 49.8782C12.3835 50.6666 13.6054 50.6666 14.3938 49.8782L25.3916 38.841C25.664 38.5631 25.848 38.2108 25.9205 37.8285C25.993 37.4462 25.9507 37.051 25.799 36.6927C25.6472 36.3344 25.3928 36.029 25.0677 35.815C24.7427 35.6011 24.3616 35.4882 23.9725 35.4904H16.9166C16.9166 20.1172 29.4517 7.70037 44.9038 7.89746C59.5674 8.09456 71.9054 20.4326 72.1025 35.0962C72.2996 50.5089 59.8828 63.0834 44.5096 63.0834C38.1632 63.0834 32.2898 60.9154 27.6384 57.2495C26.8834 56.6547 25.9361 56.3582 24.9768 56.4163C24.0174 56.4745 23.1128 56.8832 22.4352 57.5648C20.7796 59.2204 20.8979 62.0191 22.7505 63.4382C28.9437 68.3358 36.6139 70.9898 44.5096 70.9671C64.4159 70.9671 80.5381 54.5296 79.9862 34.4656C79.4738 15.9783 64.0217 0.526199 45.5345 0.0137576ZM43.5241 19.723C41.9079 19.723 40.5677 21.0633 40.5677 22.6794V37.1854C40.5677 38.5651 41.3167 39.8659 42.4992 40.5754L54.7978 47.8679C56.2169 48.6956 58.0301 48.2226 58.8579 46.843C59.6857 45.4239 59.2127 43.6107 57.833 42.7829L46.4805 36.0423V22.64C46.4805 21.0633 45.1403 19.723 43.5241 19.723Z" fill="#166199"/>
</svg>
