<svg width="120" height="26" viewBox="0 0 120 26" fill="none" xmlns="http://www.w3.org/2000/svg">
<path d="M81.7092 20.2162C82.3544 20.2162 82.8738 20.3461 83.2509 20.6059C83.6363 20.8657 83.829 21.2075 83.829 21.6314V24.496H82.656V23.9286H82.5722C82.4633 24.1337 82.2789 24.2977 82.0276 24.4208C81.7762 24.537 81.4746 24.5986 81.1311 24.5986C80.62 24.5986 80.2094 24.4823 79.8994 24.2567C79.5894 24.0311 79.4302 23.7303 79.4302 23.3611C79.4302 22.9783 79.581 22.6774 79.891 22.445C80.201 22.2125 80.6116 22.1032 81.1227 22.1032H82.5973V21.7271C82.5973 21.5289 82.5135 21.3648 82.346 21.2486C82.1784 21.1323 81.9522 21.0708 81.6673 21.0708C81.4243 21.0708 81.2148 21.1187 81.0556 21.2075C80.8965 21.3033 80.8127 21.4195 80.8127 21.5699V21.6656H79.6145V21.5152C79.6145 21.1323 79.8072 20.8179 80.1926 20.5786C80.5864 20.3393 81.0892 20.2162 81.7092 20.2162ZM81.5584 23.785C81.8684 23.785 82.1197 23.7303 82.3125 23.6277C82.5052 23.5252 82.6057 23.3885 82.6057 23.2175V22.8278H81.3405C81.1394 22.8278 80.9802 22.8689 80.8546 22.9509C80.7289 23.0329 80.6702 23.1492 80.6702 23.2859C80.6702 23.4363 80.7456 23.5594 80.9048 23.6483C81.064 23.744 81.2819 23.785 81.5584 23.785Z" fill="#00FFA3"/>
<path d="M87.0631 24.5988C86.4095 24.5988 85.8901 24.4483 85.4963 24.1544C85.1025 23.8535 84.9014 23.4639 84.9014 22.9716V21.8572C84.9014 21.365 85.1025 20.9685 85.4963 20.6745C85.8901 20.3737 86.4095 20.2301 87.0631 20.2301C87.7166 20.2301 88.2445 20.3805 88.6383 20.6745C89.0321 20.9753 89.2332 21.365 89.2332 21.8572V21.9529H88.0015V21.8572C88.0015 21.6453 87.9177 21.4744 87.7418 21.3445C87.5658 21.2146 87.3396 21.153 87.0547 21.153C86.7698 21.153 86.5436 21.2146 86.376 21.3445C86.2084 21.4744 86.1247 21.6453 86.1247 21.8572V22.9716C86.1247 23.1835 86.2084 23.3545 86.376 23.4844C86.5436 23.6143 86.7698 23.6758 87.0547 23.6758C87.3396 23.6758 87.5658 23.6143 87.7418 23.4844C87.9177 23.3545 88.0015 23.1835 88.0015 22.9716V22.8759H89.2332V22.9716C89.2332 23.4639 89.0321 23.8604 88.6383 24.1544C88.2445 24.4483 87.7166 24.5988 87.0631 24.5988Z" fill="#00FFA3"/>
<path d="M92.3249 20.2162C92.9701 20.2162 93.4895 20.3461 93.8666 20.6059C94.252 20.8657 94.4447 21.2075 94.4447 21.6314V24.496H93.2717V23.9286H93.1879C93.079 24.1337 92.8947 24.2977 92.6433 24.4208C92.3919 24.537 92.0903 24.5986 91.7468 24.5986C91.2357 24.5986 90.8251 24.4823 90.5151 24.2567C90.2051 24.0311 90.0459 23.7303 90.0459 23.3611C90.0459 22.9783 90.1967 22.6774 90.5067 22.445C90.8167 22.2125 91.2273 22.1032 91.7384 22.1032H93.213V21.7271C93.213 21.5289 93.1293 21.3648 92.9617 21.2486C92.7941 21.1323 92.5679 21.0708 92.283 21.0708C92.04 21.0708 91.8306 21.1187 91.6714 21.2075C91.5122 21.3033 91.4284 21.4195 91.4284 21.5699V21.6656H90.2302V21.5152C90.2302 21.1323 90.4229 20.8179 90.8084 20.5786C91.2022 20.3393 91.7049 20.2162 92.3249 20.2162ZM92.1741 23.785C92.4841 23.785 92.7355 23.7303 92.9282 23.6277C93.1209 23.5252 93.2214 23.3885 93.2214 23.2175V22.8278H91.9562C91.7552 22.8278 91.596 22.8689 91.4703 22.9509C91.3446 23.0329 91.2859 23.1492 91.2859 23.2859C91.2859 23.4363 91.3614 23.5594 91.5206 23.6483C91.6797 23.744 91.8976 23.785 92.1741 23.785Z" fill="#00FFA3"/>
<path d="M98.7096 18.6507H99.9413V24.4961H98.7096V23.8739H98.6258C98.5253 24.0859 98.3493 24.2636 98.0896 24.3935C97.8299 24.5234 97.5366 24.5918 97.2015 24.5918C96.7071 24.5918 96.3049 24.4687 96.0033 24.2158C95.6933 23.9628 95.5425 23.6347 95.5425 23.2245V21.5836C95.5425 21.1734 95.6933 20.8453 96.0033 20.5923C96.3133 20.3394 96.7071 20.2163 97.2015 20.2163C97.545 20.2163 97.8382 20.2847 98.0896 20.4146C98.341 20.5445 98.5253 20.7222 98.6258 20.9342H98.7096V18.6507ZM97.0423 23.4637C97.2182 23.5936 97.4444 23.662 97.7377 23.662C98.0226 23.662 98.2572 23.5936 98.4415 23.4569C98.6258 23.3202 98.718 23.1493 98.718 22.9441V21.8776C98.718 21.6794 98.6258 21.5084 98.4415 21.3649C98.2572 21.2213 98.0226 21.1598 97.7377 21.1598C97.4528 21.1598 97.2182 21.2281 97.0423 21.358C96.8663 21.4879 96.7825 21.6657 96.7825 21.8845V22.9373C96.7825 23.1493 96.8663 23.327 97.0423 23.4637Z" fill="#00FFA3"/>
<path d="M105.488 22.7663H102.338V23.0193C102.338 23.2449 102.43 23.4226 102.606 23.5525C102.79 23.6824 103.033 23.7508 103.335 23.7508C103.611 23.7508 103.829 23.703 103.997 23.6072C104.164 23.5115 104.248 23.3885 104.248 23.2312V23.2175H105.48V23.2449C105.48 23.6483 105.279 23.9764 104.885 24.2225C104.491 24.4687 103.971 24.5986 103.335 24.5986C102.664 24.5986 102.12 24.4481 101.718 24.1473C101.307 23.8465 101.106 23.45 101.106 22.9509V21.8639C101.106 21.3648 101.307 20.9683 101.709 20.6674C102.111 20.3666 102.648 20.2162 103.31 20.2162C103.963 20.2162 104.491 20.3666 104.893 20.6674C105.295 20.9683 105.488 21.3648 105.488 21.8639V22.7663ZM103.31 21.064C103.016 21.064 102.782 21.1323 102.606 21.2622C102.43 21.3921 102.338 21.5699 102.338 21.7887V22.0006H104.265V21.7887C104.265 21.5631 104.181 21.3921 104.005 21.2554C103.821 21.1255 103.594 21.064 103.31 21.064Z" fill="#00FFA3"/>
<path d="M112.35 20.2162C112.803 20.2162 113.18 20.3324 113.456 20.5649C113.741 20.7973 113.883 21.105 113.883 21.481V24.496H112.652V21.8434C112.652 21.6383 112.576 21.4742 112.417 21.3511C112.266 21.2281 112.057 21.1597 111.797 21.1597C111.521 21.1597 111.303 21.2281 111.135 21.358C110.968 21.4879 110.884 21.6519 110.884 21.8365V24.496H109.652V21.8434C109.652 21.6383 109.577 21.4742 109.418 21.3511C109.267 21.2281 109.057 21.1597 108.798 21.1597C108.521 21.1597 108.303 21.2281 108.136 21.358C107.968 21.4879 107.884 21.6519 107.884 21.8365V24.496H106.653V20.3188H107.884V20.9204H107.968C108.069 20.7085 108.245 20.5444 108.488 20.4145C108.731 20.2846 109.024 20.2231 109.351 20.2231C109.694 20.2231 109.996 20.2914 110.255 20.4282C110.507 20.5649 110.691 20.7563 110.8 21.0024H110.859C110.968 20.77 111.152 20.5786 111.412 20.435C111.68 20.2914 111.99 20.2162 112.35 20.2162Z" fill="#00FFA3"/>
<path d="M115.316 26V25.1659H116.037C116.347 25.1659 116.548 25.0565 116.64 24.8378L116.858 24.3934H116.296L114.646 20.3187H116.003L117.059 23.3747H117.419L118.466 20.3187H119.774L117.796 25.1523C117.57 25.7129 117.084 25.9932 116.33 25.9932H115.316V26Z" fill="#00FFA3"/>
<path d="M7.37327 1.21014C9.28362 1.21014 10.8253 1.68872 11.9732 2.63902C13.1294 3.58932 13.6992 4.85412 13.6992 6.41973C13.6992 8.00585 13.1211 9.27064 11.9732 10.2141C10.8169 11.1644 9.28362 11.6361 7.37327 11.6361L3.95475 11.6361L3.95475 15.8202H0L0 1.20331L7.37327 1.20331V1.21014ZM7.04649 8.66217C7.88436 8.66217 8.53791 8.46391 9.02387 8.06054C9.50984 7.65717 9.74444 7.11024 9.74444 6.41289C9.74444 5.72238 9.50145 5.17545 9.01549 4.77208C8.52952 4.36871 7.8676 4.16361 7.04649 4.16361L3.95475 4.16361L3.95475 8.65533H7.04649V8.66217Z" fill="white"/>
<path d="M23.4855 4.649H23.9715V7.77338H23.3347C22.2874 7.77338 21.4663 8.00583 20.8714 8.46389C20.2681 8.92879 19.9665 9.52358 19.9665 10.2619L19.9665 15.8202H16.2212L16.2212 4.91564L19.9665 4.91564V6.74787H20.176C20.4022 6.08471 20.8044 5.57196 21.3825 5.20277C21.9522 4.83359 22.6561 4.649 23.4855 4.649Z" fill="white"/>
<path d="M31.4202 4.649C33.1463 4.649 34.5204 4.984 35.551 5.66084C36.5815 6.33767 37.101 7.23328 37.101 8.34767V15.827H33.4814V14.4529H33.2468C32.9787 14.9588 32.5262 15.3553 31.8895 15.6493C31.2527 15.9433 30.4986 16.0937 29.6272 16.0937C28.3201 16.0937 27.2728 15.7997 26.4852 15.2117C25.6892 14.6238 25.2954 13.8376 25.2954 12.8599C25.2954 11.8754 25.6976 11.0755 26.5103 10.4739C27.3231 9.87225 28.3872 9.57144 29.711 9.57144H33.3557V8.57328C33.3557 8.13573 33.1714 7.78022 32.8111 7.52726C32.4425 7.26746 31.9565 7.13757 31.3448 7.13757C30.7918 7.13757 30.331 7.24012 29.9791 7.45206C29.6272 7.66399 29.4513 7.93746 29.4513 8.28613V8.53226H25.8065V8.13573C25.8065 7.08971 26.3176 6.24879 27.3482 5.61981C28.3788 4.96349 29.7361 4.649 31.4202 4.649ZM31.0851 13.7692C31.7554 13.7692 32.3 13.653 32.7273 13.4205C33.1463 13.1881 33.3641 12.8872 33.3641 12.5112V11.5746H30.6326C30.1634 11.5746 29.7864 11.6703 29.5015 11.8686C29.2166 12.0668 29.0742 12.3198 29.0742 12.6411C29.0742 12.983 29.2585 13.2564 29.6188 13.4615C29.9875 13.6598 30.4735 13.7692 31.0851 13.7692Z" fill="white"/>
<path d="M48.211 15.8202L45.5969 11.6976H43.9128V15.8202H40.1675V0.546936L43.9128 0.546936V8.8262H45.4963L48.2781 4.9156L52.392 4.9156L48.3032 9.99528L52.4423 15.8202H48.211Z" fill="white"/>
<path d="M62.4801 7.6434H59.5391V11.9163C59.5391 12.2582 59.6564 12.5248 59.8994 12.7231C60.1424 12.9213 60.4692 13.0171 60.8965 13.0171H62.3209V15.8269L59.8659 15.8269C58.6426 15.8269 57.6539 15.5466 56.9082 14.9792C56.1625 14.4117 55.7938 13.6665 55.7938 12.7231V7.6434H53.5735V4.91555H54.9979C55.3246 4.91555 55.5844 4.84034 55.7687 4.68993C55.953 4.53952 56.0452 4.32759 56.0452 4.06779V2.08514L59.5475 2.08514V4.91555L62.4884 4.91555V7.6434H62.4801Z" fill="white"/>
<path d="M67.0968 3.52091C66.4098 3.52091 65.8651 3.35683 65.4546 3.0355C65.0524 2.71418 64.8513 2.2903 64.8513 1.77071C64.8513 1.23745 65.0524 0.813568 65.463 0.485405C65.8735 0.16408 66.4181 0 67.0968 0C67.7587 0 68.295 0.157245 68.7055 0.47857C69.1161 0.799896 69.3172 1.22377 69.3172 1.74336C69.3172 2.27663 69.1161 2.70051 68.7139 3.02867C68.3033 3.35683 67.7671 3.52091 67.0968 3.52091ZM65.2032 15.8202V4.9156L68.9485 4.9156V15.8202H65.2032Z" fill="white"/>
<path d="M80.4274 15.8202L77.8132 11.6976H76.1291V15.8202H72.3838V0.546936L76.1291 0.546936V8.8262H77.7127L80.4944 4.9156L84.6083 4.9156L80.5195 9.99528L84.6586 15.8202H80.4274Z" fill="white"/>
<path d="M93.9507 4.91559L97.696 4.91559V15.8202H93.9507V14.2956H93.7413C93.4815 14.8357 93.0458 15.2664 92.4342 15.5945C91.8225 15.9227 91.102 16.0868 90.2641 16.0868C89.0995 16.0868 88.1527 15.7928 87.4237 15.2048C86.6948 14.6169 86.3345 13.8512 86.3345 12.9009V4.90875L90.0714 4.90875V11.7386C90.0714 12.183 90.239 12.5454 90.5825 12.812C90.926 13.0786 91.3785 13.2154 91.9566 13.2154C92.5515 13.2154 93.0291 13.0786 93.3977 12.7983C93.7664 12.518 93.9507 12.1762 93.9507 11.7523V4.91559Z" fill="white"/>
<path d="M116.095 4.649C117.252 4.649 118.19 4.94982 118.919 5.54461C119.64 6.13941 120 6.92563 120 7.88961V15.827H116.246V8.99715C116.246 8.55277 116.079 8.19042 115.744 7.92379C115.408 7.65716 114.956 7.52042 114.378 7.52042C113.783 7.52042 113.305 7.65716 112.928 7.93746C112.551 8.21777 112.367 8.55961 112.367 8.98348V15.8339H108.63V9.00399C108.63 8.5596 108.462 8.19726 108.119 7.93063C107.775 7.66399 107.323 7.52726 106.745 7.52726C106.15 7.52726 105.672 7.66399 105.304 7.9443C104.935 8.2246 104.751 8.56644 104.751 8.99032V15.8407H101.005V4.93614L104.751 4.93614V6.46073H104.96C105.22 5.92063 105.664 5.48992 106.276 5.16176C106.896 4.83359 107.608 4.66952 108.429 4.66952C109.3 4.66952 110.054 4.84043 110.7 5.1891C111.345 5.53778 111.806 6.01635 112.099 6.61798H112.283C112.576 6.0437 113.062 5.57196 113.724 5.20961C114.403 4.82675 115.191 4.649 116.095 4.649Z" fill="white"/>
</svg>
