<svg width="60" height="60" viewBox="0 0 60 60" fill="none" xmlns="http://www.w3.org/2000/svg">
<rect width="60" height="60" rx="16" fill="#DBDBDB"/>
<path d="M35.5701 31.5055C37.048 30.2454 38.1267 28.5174 38.6561 26.5619C39.1856 24.6065 39.1395 22.5208 38.5243 20.595C37.9091 18.6693 36.7553 16.9992 35.2235 15.8172C33.6917 14.6352 31.8581 14 29.9776 14C28.0972 14 26.2636 14.6352 24.7318 15.8172C23.2 16.9992 22.0462 18.6693 21.431 20.595C20.8157 22.5208 20.7697 24.6065 21.2991 26.5619C21.8286 28.5174 22.9073 30.2454 24.3852 31.5055C21.8528 32.605 19.6433 34.4287 17.9921 36.7821C16.3409 39.1355 15.3099 41.9304 15.0091 44.8689C14.9873 45.0834 15.0047 45.3005 15.0604 45.5077C15.116 45.7149 15.2088 45.9083 15.3334 46.0767C15.585 46.4167 15.9509 46.6346 16.3507 46.6822C16.7505 46.7299 17.1514 46.6035 17.4651 46.3308C17.7789 46.0581 17.9799 45.6615 18.0239 45.2283C18.3549 42.0348 19.76 39.0854 21.9706 36.9436C24.1813 34.8019 27.0426 33.6179 30.0078 33.6179C32.973 33.6179 35.8343 34.8019 38.045 36.9436C40.2556 39.0854 41.6607 42.0348 41.9917 45.2283C42.0327 45.6297 42.2094 46.0004 42.4878 46.2689C42.7661 46.5374 43.1264 46.6847 43.4991 46.6822H43.6649C44.06 46.6329 44.4212 46.4164 44.6697 46.0798C44.9181 45.7432 45.0338 45.3138 44.9914 44.8852C44.6892 41.9384 43.6526 39.1363 41.993 36.7793C40.3333 34.4223 38.113 32.5992 35.5701 31.5055ZM29.9776 30.3456C28.7851 30.3456 27.6193 29.9623 26.6278 29.2443C25.6362 28.5263 24.8634 27.5057 24.407 26.3117C23.9506 25.1176 23.8312 23.8037 24.0639 22.5361C24.2965 21.2685 24.8708 20.1041 25.7141 19.1903C26.5573 18.2764 27.6317 17.654 28.8013 17.4019C29.971 17.1497 31.1833 17.2791 32.2851 17.7737C33.3869 18.2683 34.3286 19.1059 34.9911 20.1805C35.6536 21.2551 36.0073 22.5185 36.0073 23.811C36.0073 25.544 35.372 27.2062 34.2412 28.4316C33.1105 29.6571 31.5768 30.3456 29.9776 30.3456Z" fill="white"/>
</svg>
