<svg width="28" height="28" viewBox="0 0 28 28" fill="none" xmlns="http://www.w3.org/2000/svg">
<path d="M14.0001 0.666992C6.66675 0.666992 0.666748 6.66699 0.666748 14.0003C0.666748 17.067 1.73342 20.0003 3.73342 22.4003L1.06675 25.067C0.533415 25.6003 0.533415 26.4003 1.06675 26.9337C1.33341 27.2003 1.60008 27.3337 2.00008 27.3337H14.0001C21.3334 27.3337 27.3334 21.3337 27.3334 14.0003C27.3334 6.66699 21.3334 0.666992 14.0001 0.666992ZM15.3334 18.0003H7.33342C6.53341 18.0003 6.00008 17.467 6.00008 16.667C6.00008 15.867 6.53341 15.3337 7.33342 15.3337H15.3334C16.1334 15.3337 16.6667 15.867 16.6667 16.667C16.6667 17.467 16.1334 18.0003 15.3334 18.0003ZM20.6667 12.667H7.33342C6.53341 12.667 6.00008 12.1337 6.00008 11.3337C6.00008 10.5337 6.53341 10.0003 7.33342 10.0003H20.6667C21.4667 10.0003 22.0001 10.5337 22.0001 11.3337C22.0001 12.1337 21.4667 12.667 20.6667 12.667Z" fill="#A098AE"/>
</svg>
